<?xml version="1.0" encoding="UTF-8"?>
<svg id="vector" xmlns="http://www.w3.org/2000/svg" version="1.1" viewBox="0 0 96 96">
  <defs>
    <style>
      .cls-1 {
        fill-opacity: .9;
      }

      .cls-1, .cls-2, .cls-3 {
        stroke-width: 0px;
      }

      .cls-1, .cls-3 {
        fill: #fff;
      }

      .cls-4 {
        stroke-miterlimit: 1.6;
        stroke-width: 2.9px;
      }

      .cls-4, .cls-5 {
        fill: none;
        stroke: #fff;
      }

      .cls-2 {
        fill: #171717;
      }

      .cls-5 {
        stroke-miterlimit: 2.6;
        stroke-opacity: .5;
        stroke-width: 4.8px;
      }
    </style>
  </defs>
  <rect class="cls-2" x=".3" y=".3" width="95.5" height="95.5" rx="19.9" ry="19.9"/>
  <g id="root">
    <g id="tap_1" data-name="tap 1">
      <path id="path_4" data-name="path 4" class="cls-5" d="M47.5,15.9c-5.4,0-10.6,2.1-14.5,5.9-3.8,3.8-6,8.9-6,14.2s2.2,10.4,6,14.2c3.8,3.8,9.1,5.9,14.5,5.9s10.6-2.1,14.5-5.9c3.8-3.8,6-8.9,6-14.2s-2.2-10.4-6-14.2c-3.8-3.8-9.1-5.9-14.5-5.9Z"/>
    </g>
    <g id="tap_2" data-name="tap 2">
      <path id="path_1" data-name="path 1" class="cls-4" d="M47.5,23.8c-3.3,0-6.4,1.3-8.7,3.5-2.3,2.3-3.6,5.3-3.6,8.5s1.3,6.3,3.6,8.5c2.3,2.3,5.4,3.5,8.7,3.5s6.4-1.3,8.7-3.5c2.3-2.3,3.6-5.3,3.6-8.5s-1.3-6.3-3.6-8.5c-2.3-2.3-5.4-3.5-8.7-3.5Z"/>
    </g>
    <g id="hand">
      <path id="path_2" data-name="path 2" class="cls-1" d="M47.8,33.9c-2.9,0-5.2,2.4-5.2,5.2v23.5l-6.2-1.3h0c-1.5-.3-2.9.2-4,1.2h0c-1.6,1.7-1.6,4.4,0,6.1,0,0,0,0,0,0l9.6,9.6s0,0,0,0c1.2,1.2,2.8,1.9,4.5,1.9h14.5c3.2,0,5.9-2.4,6.4-5.5l1.5-10.6c.4-2.7-1-5.4-3.5-6.7h0l-9.7-4.8c-.8-.4-1.7-.6-2.7-.6v-12.7c0-2.9-2.4-5.2-5.2-5.2Z"/>
      <path id="path" class="cls-3" d="M54.9,53.9c-.7-.3-1.4-.5-2.1-.5h-1.5v-14.3c0-2-1.6-3.6-3.6-3.6s-3.6,1.6-3.6,3.6v25.6l-8.2-1.7c-.9-.2-1.8,0-2.5.7-1,1-1,2.7,0,3.8l9.6,9.6c.9.9,2.1,1.4,3.4,1.4h14.5c2.4,0,4.4-1.7,4.7-4.1l1.5-10.6c.3-2-.8-4-2.6-4.9l-9.7-4.8Z"/>
    </g>
  </g>
</svg>